<?xml version="1.0" encoding="utf-8"?>
<!-- Generator: Adobe Illustrator 24.1.2, SVG Export Plug-In . SVG Version: 6.00 Build 0)  -->
<svg version="1.1" id="Warstwa_1" xmlns="http://www.w3.org/2000/svg" xmlns:xlink="http://www.w3.org/1999/xlink" x="0px" y="0px"
	 viewBox="0 0 1366 768" style="enable-background:new 0 0 1366 768;" xml:space="preserve">
<style type="text/css">
	.st0{clip-path:url(#SVGID_2_);fill:#FFF5E6;}
	.st1{clip-path:url(#SVGID_4_);fill:#CBCBD8;}
	.st2{clip-path:url(#SVGID_4_);}
	.st3{fill:#FFFFFF;}
	.st4{fill:#CBCBD8;}
	.st5{clip-path:url(#SVGID_6_);fill:#FDC8C2;}
</style>
<g>
	<g>
		<defs>
			<rect id="SVGID_1_" width="1366" height="768"/>
		</defs>
		<clipPath id="SVGID_2_">
			<use xlink:href="#SVGID_1_"  style="overflow:visible;"/>
		</clipPath>
		<path class="st0" d="M59,768c0,0,471-138,624-291C815.2,344.8,932-92,1384-13v794H59V768z"/>
	</g>
	<g>
		<defs>
			<rect id="SVGID_3_" width="1366" height="768"/>
		</defs>
		<clipPath id="SVGID_4_">
			<use xlink:href="#SVGID_3_"  style="overflow:visible;"/>
		</clipPath>
		<path class="st1" d="M148.1,768.9c0,0,475.1-123.1,632.9-271.2c136.3-128,266.8-560.9,716.1-467.7l-25,793.6L147.7,781.9
			L148.1,768.9z"/>
		<g class="st2">
			<path class="st3" d="M1555,352.1c0-62.2-50.4-112.5-112.5-112.5c-25,0-49.4,8.3-69.1,23.7c-43.9-50.9-120.9-56.5-171.8-12.5
				c-17,14.7-29.6,33.8-36.4,55.2c-37.5-33.3-94.9-29.9-128.2,7.5c-33.3,37.5-29.9,94.9,7.5,128.2c16.6,14.8,38.1,23,60.3,23
				c1.4,0,2.8,0,4.2-0.1c1.5,0.1,2.9,0.1,4.4,0.1h341.1c50.8,0,93.3-38.6,98.3-89.2C1554.1,367.7,1555,359.9,1555,352.1z"/>
			<path class="st4" d="M1728.8,428c0-62.2-50.4-112.5-112.5-112.5c-25,0-49.4,8.3-69.1,23.7c-43.9-50.9-120.9-56.5-171.8-12.5
				c-17,14.7-29.6,33.8-36.4,55.2c-37.5-33.3-94.9-29.9-128.2,7.5c-33.3,37.5-29.9,94.9,7.5,128.2c16.6,14.8,38.1,23,60.3,23
				c1.4,0,2.8,0,4.2-0.1c1.5,0.1,2.9,0.1,4.4,0.1h341.1c50.8,0,93.3-38.6,98.3-89.2C1727.9,443.6,1728.8,435.8,1728.8,428z"/>
			<path class="st3" d="M1715.3,446.6c0-62.2-50.4-112.5-112.5-112.5c-25,0-49.4,8.3-69.1,23.7c-43.9-50.9-120.9-56.5-171.8-12.5
				c-17,14.7-29.6,33.8-36.4,55.2c-37.5-33.3-94.9-29.9-128.2,7.5c-33.3,37.5-29.9,94.9,7.5,128.2c16.6,14.8,38.1,23,60.3,23
				c1.4,0,2.8,0,4.2-0.1c1.5,0.1,2.9,0.1,4.4,0.1h341.1c50.8,0,93.3-38.6,98.3-89.2C1714.4,462.2,1715.3,454.4,1715.3,446.6z"/>
		</g>
	</g>
	<g>
		<defs>
			<rect id="SVGID_5_" width="1366" height="768"/>
		</defs>
		<clipPath id="SVGID_6_">
			<use xlink:href="#SVGID_5_"  style="overflow:visible;"/>
		</clipPath>
		<circle class="st5" cx="1705.9" cy="281.2" r="151"/>
	</g>
</g>
</svg>
